# xmcd CD database file
#
# Track frame offsets:
#        150
#        15520
#        33344
#        47866
#        61049
#        77121
#        94138
#        111463
#        126225
#        146177
#        153522
#        174455
#        188892
#        202234
#        214660
#
# Disc length: 3115 seconds
#
# Revision: 0
# Processed by: cddbd v1.5.2PL0 Copyright (c) Steve Scherf et al.
# Submitted via: CUERipper 2.1.5
#
DISCID=d90c290f
DTITLE=Robert Earl Keen - Happy Prisoner: The Bluegrass Sessions
DYEAR=2015
DGENRE=
TTITLE0=Hot Corn, Cold Corn
TTITLE1=52 Vincent Black Lightning
TTITLE2=Footprints In the Snow
TTITLE3=99 Years For One Dark Day (with Peter Rowan)
TTITLE4=East Virginia Blues
TTITLE5=Poor Ellen Smith
TTITLE6=Long Black Veil
TTITLE7=This World Is Not My Home
TTITLE8=T For Texas (with Lyle Lovett)
TTITLE9=Peter Rowan Intro
TTITLE10=Walls of Time
TTITLE11=White Dove
TTITLE12=Old Home Place
TTITLE13=Twisted Laurel
TTITLE14=Wayfaring Stranger (with Natalie Maines)
EXTD=
EXTT0=
EXTT1=
EXTT2=
EXTT3=
EXTT4=
EXTT5=
EXTT6=
EXTT7=
EXTT8=
EXTT9=
EXTT10=
EXTT11=
EXTT12=
EXTT13=
EXTT14=
PLAYORDER=
